solid 
 facet normal  1.000000e+00  0.000000e+00  0.000000e+00
   outer loop
     vertex  2.500000e+02 -7.771561e-14  3.500000e+02
     vertex  2.500000e+02  7.771561e-14 -3.500000e+02
     vertex  2.500000e+02  1.000000e+03 -3.500000e+02
   endloop
 endfacet
 facet normal  1.000000e+00 -0.000000e+00  0.000000e+00
   outer loop
     vertex  2.500000e+02 -7.771561e-14  3.500000e+02
     vertex  2.500000e+02  1.000000e+03 -3.500000e+02
     vertex  2.500000e+02  1.000000e+03  3.500000e+02
   endloop
 endfacet
 facet normal  0.000000e+00 -2.273737e-16  1.000000e+00
   outer loop
     vertex -2.500000e+02 -7.771561e-14  3.500000e+02
     vertex  2.500000e+02 -7.771561e-14  3.500000e+02
     vertex  2.500000e+02  1.000000e+03  3.500000e+02
   endloop
 endfacet
 facet normal  0.000000e+00 -2.273737e-16  1.000000e+00
   outer loop
     vertex -2.500000e+02 -7.771561e-14  3.500000e+02
     vertex  2.500000e+02  1.000000e+03  3.500000e+02
     vertex -2.500000e+02  1.000000e+03  3.500000e+02
   endloop
 endfacet
 facet normal -1.000000e+00  0.000000e+00  0.000000e+00
   outer loop
     vertex -2.500000e+02  7.771561e-14 -3.500000e+02
     vertex -2.500000e+02 -7.771561e-14  3.500000e+02
     vertex -2.500000e+02  1.000000e+03  3.500000e+02
   endloop
 endfacet
 facet normal -1.000000e+00  0.000000e+00  0.000000e+00
   outer loop
     vertex -2.500000e+02  7.771561e-14 -3.500000e+02
     vertex -2.500000e+02  1.000000e+03  3.500000e+02
     vertex -2.500000e+02  1.000000e+03 -3.500000e+02
   endloop
 endfacet
 facet normal  0.000000e+00  2.273737e-16 -1.000000e+00
   outer loop
     vertex  2.500000e+02  7.771561e-14 -3.500000e+02
     vertex -2.500000e+02  7.771561e-14 -3.500000e+02
     vertex -2.500000e+02  1.000000e+03 -3.500000e+02
   endloop
 endfacet
 facet normal  0.000000e+00  2.273737e-16 -1.000000e+00
   outer loop
     vertex  2.500000e+02  7.771561e-14 -3.500000e+02
     vertex -2.500000e+02  1.000000e+03 -3.500000e+02
     vertex  2.500000e+02  1.000000e+03 -3.500000e+02
   endloop
 endfacet
 facet normal  0.000000e+00 -1.000000e+00 -2.220446e-16
   outer loop
     vertex  2.500000e+02 -7.771561e-14  3.500000e+02
     vertex -2.500000e+02  7.771561e-14 -3.500000e+02
     vertex  2.500000e+02  7.771561e-14 -3.500000e+02
   endloop
 endfacet
 facet normal -0.000000e+00 -1.000000e+00 -2.220446e-16
   outer loop
     vertex  2.500000e+02 -7.771561e-14  3.500000e+02
     vertex -2.500000e+02 -7.771561e-14  3.500000e+02
     vertex -2.500000e+02  7.771561e-14 -3.500000e+02
   endloop
 endfacet
 facet normal  0.000000e+00  1.000000e+00  3.248195e-16
   outer loop
     vertex  2.500000e+02  1.000000e+03  3.500000e+02
     vertex  2.500000e+02  1.000000e+03 -3.500000e+02
     vertex -2.500000e+02  1.000000e+03 -3.500000e+02
   endloop
 endfacet
 facet normal  0.000000e+00  1.000000e+00  3.248195e-16
   outer loop
     vertex  2.500000e+02  1.000000e+03  3.500000e+02
     vertex -2.500000e+02  1.000000e+03 -3.500000e+02
     vertex -2.500000e+02  1.000000e+03  3.500000e+02
   endloop
 endfacet
endsolid
